# File created by Blade
# Date/Time:  Tue Jan 27 18:55:50 2015
# Frame Rate: 120.000 fps
#------------------------------------------------------
:FULLY-SPECIFIED
:DEGREES
3787
root -5.910201 31.791143 -4.061203 4.627731 3.860468 2.611964
Spine -7.751373 -4.370679 0.202947
Head 18.785324 16.083335 6.479598
LeftShoulder -19.800328 17.593325 20.222107
LeftArm 27.509165 -26.098143 -38.257028
LeftForeArm -34.539858 -0.000000 2.831533
LeftHand -15.436425 -0.000000 -2.163638
LeftHandThumb1 -26.253704 0.000000 33.147579
RightShoulder -13.965702 1.631566 -32.181047
RightArm 19.348630 9.973022 34.310650
RightForeArm -24.993497 0.000000 5.122456
RightHand -15.644345 0.000000 14.109935
RightHandThumb1 -24.326973 -0.000000 -32.862282
LeftUpLeg 1.550663 -8.064416 -2.447426
LeftLeg 1.017617 -0.000000 -0.000000
LeftFoot -18.270810 12.981406 -25.757556
LeftToeBase 5.142868 -0.000000 -0.000000
RightUpLeg 6.395148 -2.539381 -1.690500
RightLeg -3.018847 -0.000000 0.000000
RightFoot -16.115352 -11.226394 6.642852
RightToeBase 2.370884 -0.000000 -0.000000
3788
root -5.903885 31.794948 -4.049795 4.627424 3.801401 2.536584
Spine -7.808277 -4.375317 0.264885
Head 18.609201 15.823073 6.487995
LeftShoulder -19.804395 17.647780 20.216386
LeftArm 27.412830 -26.227670 -38.326342
LeftForeArm -34.517335 -0.000000 2.915053
LeftHand -15.516905 -0.000000 -2.002030
LeftHandThumb1 -26.253704 0.000000 33.147579
RightShoulder -13.952814 1.672485 -32.195385
RightArm 19.367406 10.049893 34.280568
RightForeArm -24.940079 -0.000000 5.118961
RightHand -15.645816 0.000000 14.356970
RightHandThumb1 -24.326973 -0.000000 -32.862282
LeftUpLeg 1.588833 -8.073573 -2.392338
LeftLeg 0.985425 -0.000000 -0.000000
LeftFoot -18.287412 13.044794 -25.754611
LeftToeBase 5.101281 -0.000000 -0.000000
RightUpLeg 6.400459 -2.796754 -1.542184
RightLeg -3.082867 -0.000000 0.000000
RightFoot -15.981192 -11.562024 6.462927
RightToeBase 2.304934 -0.000000 -0.000000
3789
root -5.894013 31.798970 -4.039740 4.629626 3.737601 2.486697
Spine -7.863788 -4.373604 0.311807
Head 18.410762 15.554096 6.457022
LeftShoulder -19.820279 17.659773 20.212169
LeftArm 27.315186 -26.328557 -38.393440
LeftForeArm -34.427620 0.000000 3.022923
LeftHand -15.648260 -0.000000 -1.682699
LeftHandThumb1 -26.253704 0.000000 33.147579
RightShoulder -13.933263 1.688055 -32.206647
RightArm 19.395142 10.163803 34.256938
RightForeArm -25.066536 0.000000 5.115615
RightHand -15.646384 0.000000 14.264392
RightHandThumb1 -24.326973 -0.000000 -32.862282
LeftUpLeg 1.681228 -8.413754 -2.379928
LeftLeg 0.839448 -0.000000 -0.000000
LeftFoot -18.419995 13.395593 -25.932642
LeftToeBase 5.269324 -0.000000 -0.000000
RightUpLeg 6.375137 -3.116955 -1.437654
RightLeg -3.082052 -0.000000 0.000000
RightFoot -15.912468 -11.769836 6.331309
RightToeBase 2.328654 -0.000000 -0.000000
3790
root -5.885533 31.801811 -4.030247 4.627116 3.666516 2.442713
Spine -7.902115 -4.351011 0.342424
Head 18.191289 15.289535 6.445145
LeftShoulder -19.841452 17.675153 20.230022
LeftArm 27.246960 -26.432853 -38.504588
LeftForeArm -34.580159 -0.000000 3.238046
LeftHand -15.790232 0.000000 -1.163292
LeftHandThumb1 -26.253704 0.000000 33.147579
RightShoulder -13.917871 1.589544 -32.241717
RightArm 19.428698 10.313537 34.286036
RightForeArm -25.033728 -0.000000 5.162123
RightHand -15.669888 -0.000000 14.290906
RightHandThumb1 -24.326973 -0.000000 -32.862282
LeftUpLeg 1.713048 -8.499170 -2.368745
LeftLeg 0.824726 -0.000000 -0.000000
LeftFoot -18.477441 13.547158 -25.964320
LeftToeBase 5.284425 -0.000000 -0.000000
RightUpLeg 6.359208 -3.435397 -1.336229
RightLeg -3.088172 -0.000000 0.000000
RightFoot -15.835684 -11.991465 6.159008
RightToeBase 2.314176 -0.000000 -0.000000
3791
root -5.875904 31.803913 -4.022967 4.627161 3.603163 2.418157
Spine -7.936289 -4.314816 0.349219
Head 17.951959 14.964431 6.438805
LeftShoulder -19.844912 17.670621 20.239353
LeftArm 27.187501 -26.576542 -38.594166
LeftForeArm -34.696445 -0.000000 3.429428
LeftHand -15.983916 0.000000 -0.692692
LeftHandThumb1 -26.253704 0.000000 33.147579
RightShoulder -13.944331 1.589023 -32.286359
RightArm 19.421841 10.256411 34.254896
RightForeArm -24.996509 0.000000 5.224388
RightHand -15.682275 -0.000000 14.476592
RightHandThumb1 -24.326973 -0.000000 -32.862282
LeftUpLeg 1.705520 -8.507576 -2.379783
LeftLeg 0.879500 -0.000000 -0.000000
LeftFoot -18.539390 13.656774 -25.933073
LeftToeBase 5.305436 -0.000000 -0.000000
RightUpLeg 6.317626 -3.807065 -1.259234
RightLeg -3.058674 -0.000000 0.000000
RightFoot -15.801142 -12.157188 6.010898
RightToeBase 2.357308 -0.000000 -0.000000
3792
root -5.860755 31.805480 -4.017612 4.632612 3.544482 2.437540
Spine -7.970206 -4.304134 0.326213
Head 17.723391 14.712339 6.440889
LeftShoulder -19.844267 17.649471 20.250019
LeftArm 27.095326 -26.764924 -38.701626
LeftForeArm -34.923758 -0.000000 3.656264
LeftHand -16.198927 -0.000000 -0.179885
LeftHandThumb1 -26.253704 0.000000 33.147579
RightShoulder -13.975161 1.698682 -32.356092
RightArm 19.425615 10.190582 34.233446
RightForeArm -25.005289 -0.000000 5.206033
RightHand -15.749022 -0.000000 14.306287
RightHandThumb1 -24.326973 -0.000000 -32.862282
LeftUpLeg 1.690691 -8.554482 -2.447946
LeftLeg 0.931459 -0.000000 -0.000000
LeftFoot -18.618068 13.796894 -25.958973
LeftToeBase 5.446732 -0.000000 -0.000000
RightUpLeg 6.214302 -4.348317 -1.253614
RightLeg -2.900587 -0.000000 0.000000
RightFoot -15.852464 -12.138252 5.827083
RightToeBase 2.349489 -0.000000 -0.000000
3793
root -5.848792 31.805063 -4.012025 4.618942 3.484441 2.455277
Spine -7.982044 -4.298251 0.283905
Head 17.502089 14.493388 6.489070
LeftShoulder -19.849049 17.644853 20.270111
LeftArm 27.010607 -26.956254 -38.772698
LeftForeArm -35.447495 -0.000000 3.872613
LeftHand -16.542334 -0.000000 0.304314
LeftHandThumb1 -26.253704 0.000000 33.147579
RightShoulder -13.974313 1.786389 -32.400661
RightArm 19.413425 10.065824 34.169814
RightForeArm -24.937001 -0.000000 5.180899
RightHand -15.779155 -0.000000 14.362234
RightHandThumb1 -24.326973 -0.000000 -32.862282
LeftUpLeg 1.713869 -8.697552 -2.511005
LeftLeg 0.961569 -0.000000 -0.000000
LeftFoot -18.716368 14.006315 -25.993981
LeftToeBase 5.441524 -0.000000 -0.000000
RightUpLeg 6.206937 -4.623596 -1.228304
RightLeg -2.899862 -0.000000 0.000000
RightFoot -15.838757 -12.355283 5.648800
RightToeBase 2.354409 -0.000000 -0.000000
3794
root -5.840625 31.805859 -4.003788 4.585714 3.417828 2.435492
Spine -7.983298 -4.270099 0.282572
Head 17.290906 14.252931 6.513331
LeftShoulder -19.807462 17.608648 20.283221
LeftArm 26.911408 -27.220820 -38.822054
LeftForeArm -36.058771 -0.000000 3.993839
LeftHand -16.833937 -0.000000 0.565020
LeftHandThumb1 -26.253704 0.000000 33.147579
RightShoulder -13.937541 1.801913 -32.465216
RightArm 19.363824 10.208088 34.213516
RightForeArm -25.028695 -0.000000 5.212816
RightHand -15.780057 0.000000 14.640888
RightHandThumb1 -24.326973 -0.000000 -32.862282
LeftUpLeg 1.756899 -8.786055 -2.532027
LeftLeg 0.971027 -0.000000 -0.000000
LeftFoot -18.777754 14.209194 -25.939373
LeftToeBase 5.407871 -0.000000 -0.000000
RightUpLeg 6.315700 -4.503989 -1.131222
RightLeg -3.099415 -0.000000 0.000000
RightFoot -15.728473 -12.941226 5.542843
RightToeBase 2.423900 -0.000000 -0.000000
3795
root -5.829682 31.803745 -3.999081 4.566481 3.342816 2.462050
Spine -7.982742 -4.243234 0.219730
Head 17.067068 14.030728 6.570593
LeftShoulder -19.786289 17.563905 20.296425
LeftArm 26.830256 -27.529087 -38.863486
LeftForeArm -36.450016 -0.000000 4.101590
LeftHand -17.259831 -0.000000 0.610447
LeftHandThumb1 -26.253704 0.000000 33.147579
RightShoulder -13.916348 1.829393 -32.515090
RightArm 19.340948 10.242362 34.224644
RightForeArm -25.011580 -0.000000 5.221924
RightHand -15.824996 -0.000000 14.562858
RightHandThumb1 -24.326973 -0.000000 -32.862282
LeftUpLeg 1.772111 -8.847128 -2.598756
LeftLeg 1.021846 -0.000000 -0.000000
LeftFoot -18.882556 14.338701 -25.957880
LeftToeBase 5.497162 -0.000000 -0.000000
RightUpLeg 6.344082 -4.574197 -1.128861
RightLeg -3.144653 -0.000000 0.000000
RightFoot -15.750930 -13.163803 5.503455
RightToeBase 2.455393 -0.000000 -0.000000
3796
root -5.816208 31.799826 -3.991314 4.507609 3.256301 2.522807
Spine -7.946738 -4.208846 0.115597
Head 16.859585 13.800984 6.631311
LeftShoulder -19.769006 17.552129 20.322599
LeftArm 26.807442 -27.761534 -38.869764
LeftForeArm -36.899287 -0.000000 4.099743
LeftHand -17.764177 -0.000000 0.606310
LeftHandThumb1 -26.253704 0.000000 33.147579
RightShoulder -13.892563 1.843003 -32.559119
RightArm 19.324767 10.294281 34.234481
RightForeArm -25.069016 0.000000 5.234497
RightHand -15.869079 -0.000000 14.554702
RightHandThumb1 -24.326973 -0.000000 -32.862282
LeftUpLeg 1.848054 -8.883186 -2.708394
LeftLeg 1.042622 -0.000000 -0.000000
LeftFoot -18.932809 14.448947 -25.951220
LeftToeBase 5.498319 -0.000000 -0.000000
RightUpLeg 6.410006 -4.676966 -1.181435
RightLeg -3.171308 -0.000000 0.000000
RightFoot -15.787519 -13.330120 5.436738
RightToeBase 2.467023 -0.000000 -0.000000
3797
root -5.814191 31.796564 -3.983441 4.467613 3.146062 2.494426
Spine -7.947736 -4.155670 0.085482
Head 16.680553 13.579424 6.730777
LeftShoulder -19.747929 17.511746 20.379055
LeftArm 26.750939 -27.914646 -38.811672
LeftForeArm -37.326870 -0.000000 4.021203
LeftHand -18.113700 -0.000000 0.442230
LeftHandThumb1 -26.253704 0.000000 33.147579
RightShoulder -13.875762 1.899744 -32.593231
RightArm 19.343888 10.354241 34.258663
RightForeArm -25.042139 -0.000000 5.174620
RightHand -15.779388 -0.000000 14.905448
RightHandThumb1 -24.326973 -0.000000 -32.862282
LeftUpLeg 1.912531 -8.838030 -2.702883
LeftLeg 1.028707 -0.000000 -0.000000
LeftFoot -18.948028 14.481100 -25.863617
LeftToeBase 5.318064 -0.000000 -0.000000
RightUpLeg 6.625481 -4.035637 -1.082443
RightLeg -3.576453 -0.000000 0.000000
RightFoot -15.653433 -14.049305 5.646216
RightToeBase 2.489551 -0.000000 -0.000000
3798
root -5.804071 31.791720 -3.978205 4.416505 3.035113 2.527085
Spine -7.917908 -4.094483 0.002901
Head 16.485352 13.367241 6.831422
LeftShoulder -19.712874 17.458272 20.456995
LeftArm 26.687867 -27.984873 -38.748522
LeftForeArm -37.558448 -0.000000 3.929773
LeftHand -18.308214 -0.000000 0.448444
LeftHandThumb1 -26.253704 0.000000 33.147579
RightShoulder -13.826436 2.052163 -32.625883
RightArm 19.226732 10.365640 34.200907
RightForeArm -25.069243 -0.000000 5.215140
RightHand -15.791325 -0.000000 15.131867
RightHandThumb1 -24.326973 -0.000000 -32.862282
LeftUpLeg 1.998824 -8.912404 -2.783557
LeftLeg 1.002978 -0.000000 -0.000000
LeftFoot -19.021199 14.651196 -25.858884
LeftToeBase 5.315504 -0.000000 -0.000000
RightUpLeg 6.690488 -3.963377 -1.107167
RightLeg -3.626409 -0.000000 0.000000
RightFoot -15.698956 -14.250204 5.578894
RightToeBase 2.621164 -0.000000 -0.000000
3799
root -5.780898 31.786822 -3.975127 4.363135 2.932244 2.631996
Spine -7.884400 -4.066472 -0.105046
Head 16.299059 13.180168 6.818134
LeftShoulder -19.680240 17.400918 20.505851
LeftArm 26.610212 -28.048735 -38.688364
LeftForeArm -37.625267 -0.000000 3.803343
LeftHand -18.404748 0.000000 0.389304
LeftHandThumb1 -26.253704 0.000000 33.147579
RightShoulder -13.789383 2.031597 -32.664853
RightArm 19.288381 10.422654 34.164482
RightForeArm -25.073166 -0.000000 5.182771
RightHand -15.787560 -0.000000 15.011762
RightHandThumb1 -24.326973 -0.000000 -32.862282
LeftUpLeg 2.077140 -8.939499 -2.957936
LeftLeg 0.996104 -0.000000 -0.000000
LeftFoot -19.072197 14.791835 -25.841421
LeftToeBase 5.441370 -0.000000 -0.000000
RightUpLeg 6.432008 -5.090481 -1.330018
RightLeg -2.965958 -0.000000 0.000000
RightFoot -16.062843 -13.313871 5.211249
RightToeBase 2.564633 -0.000000 -0.000000
